<?xml version="1.0" encoding="utf-8"?>
<!-- Generator: Adobe Illustrator 18.0.0, SVG Export Plug-In . SVG Version: 6.00 Build 0)  -->
<!DOCTYPE svg PUBLIC "-//W3C//DTD SVG 1.1//EN" "http://www.w3.org/Graphics/SVG/1.1/DTD/svg11.dtd">
<svg version="1.1" id="Layer_1" xmlns="http://www.w3.org/2000/svg" xmlns:xlink="http://www.w3.org/1999/xlink" x="0px" y="0px"
	 viewBox="0 0 214.6 227" enable-background="new 0 0 214.6 227" xml:space="preserve">
<path fill="#5A9EC1" d="M16,113.1l2.4,32.4l16.8-1.3c2.6,8.9,6.6,17.2,11.8,24.7l-11.8,12.3l23.5,22.4l11.8-12.4
	c8.3,5.2,17.5,8.9,27.4,10.9v17.2h32.5v-17.2c12.5-2.5,24-7.9,33.7-15.3l12.9,11.2l21.3-24.5l-12.8-11.1c5.2-9.1,8.8-19.4,10.2-30.3
	l16.8-1.3l-2.4-32.4l-16.6,1.2c-2.5-9.1-6.5-17.5-11.7-25l11.4-11.9l-23.5-22.4l-11.3,11.8c-8.4-5.4-17.8-9.3-27.9-11.3V24.6H98.1
	v16.3C85.3,43.5,73.7,49,63.8,56.7l-1-0.9l0,0l-11.4-9.9L30.2,70.5l12.5,10.8c-5.2,9.2-8.7,19.6-9.9,30.6L16,113.1z M114.3,96.2
	c14.3,0,25.8,11.6,25.8,25.8c0,14.3-11.6,25.8-25.8,25.8S88.5,136.2,88.5,122C88.5,107.7,100.1,96.2,114.3,96.2z"/>
<g>
	<path fill="#364D6F" d="M183.6,119.2l16.8-1.3l-2.4-32.4l-16.6,1.2c-2.5-9.1-6.5-17.5-11.7-25L181,49.8l-23.5-22.4l-11.3,11.8
		c-8.4-5.4-17.8-9.3-27.9-11.3V11.7H85.8V28C73.1,30.5,61.4,36,51.6,43.7L39.2,33L17.9,57.5l12.5,10.8c-5.2,9.2-8.7,19.6-9.9,30.6
		l-16.7,1.3l2.4,32.4l16.8-1.3c2.6,8.9,6.6,17.3,11.8,24.7l-11.8,12.3l23.5,22.4l11.8-12.4c8.3,5.2,17.5,8.9,27.4,10.9v17.2h32.5
		v-17.2c12.5-2.5,24-7.9,33.7-15.3l12.9,11.2l21.3-24.5l-12.8-11.1C178.7,140.3,182.2,130.1,183.6,119.2z M102.1,134.9
		c-14.3,0-25.8-11.6-25.8-25.8c0-14.3,11.6-25.8,25.8-25.8c14.3,0,25.8,11.6,25.8,25.8C127.9,123.3,116.3,134.9,102.1,134.9z"/>
	<path fill="none" stroke="#21409A" stroke-width="4.9056" stroke-miterlimit="10" d="M102.1,176.6"/>
	<path fill="#D1D3D4" d="M183.6,119.2l16.8-1.3l-2.4-32.4l-5.7,0.4c-5.3,36.2-36.4,64-74.1,64c-41.4,0-74.9-33.5-74.9-74.9
		c0-11.5,2.6-22.5,7.3-32.2L39.2,33L17.9,57.5l12.5,10.8c-5.2,9.2-8.7,19.6-9.9,30.6l-16.7,1.3l2.4,32.4l16.8-1.3
		c2.6,8.9,6.6,17.3,11.8,24.7l-11.8,12.3l23.5,22.4l11.8-12.4c8.3,5.2,17.5,8.9,27.4,10.9v17.2h32.5v-17.2
		c12.5-2.5,24-7.9,33.7-15.3l12.9,11.2l21.3-24.5l-12.8-11.1C178.7,140.3,182.2,130.1,183.6,119.2z"/>
	<path fill="#243654" d="M102.1,57.4c-28.5,0-51.7,23.1-51.7,51.7c0,28.5,23.1,51.7,51.7,51.7c28.5,0,51.7-23.1,51.7-51.7
		C153.7,80.5,130.6,57.4,102.1,57.4z M102.1,134.9c-14.3,0-25.8-11.6-25.8-25.8c0-14.3,11.6-25.8,25.8-25.8
		c14.3,0,25.8,11.6,25.8,25.8C127.9,123.3,116.3,134.9,102.1,134.9z"/>
</g>
</svg>
